<svg width="1321" height="434" viewBox="0 0 1321 434" fill="none" xmlns="http://www.w3.org/2000/svg">
<rect x="0.494757" y="332.149" width="6.92659" height="6.92659" fill="#D0D0D0" stroke="#D0D0D0" stroke-width="0.989513"/>
<rect x="0.494757" y="3.31312" width="6.92659" height="6.92659" fill="#D0D0D0" stroke="#D0D0D0" stroke-width="0.989513"/>
<rect x="56.8665" y="3.31312" width="6.92659" height="6.92659" fill="#D0D0D0" stroke="#D0D0D0" stroke-width="0.989513"/>
<rect x="56.8665" y="109.011" width="6.92659" height="6.92659" fill="#D0D0D0" stroke="#D0D0D0" stroke-width="0.989513"/>
<rect x="89.2803" y="119.346" width="6.92659" height="6.92659" fill="#D0D0D0" stroke="#D0D0D0" stroke-width="0.989513"/>
<rect x="178.536" y="3.31312" width="6.92659" height="6.92659" fill="#D0D0D0" stroke="#D0D0D0" stroke-width="0.989513"/>
<rect x="249.47" y="3.31312" width="6.92659" height="6.92659" fill="#D0D0D0" stroke="#D0D0D0" stroke-width="0.989513"/>
<rect x="138.606" y="148.002" width="6.92659" height="6.92659" fill="#D0D0D0" stroke="#D0D0D0" stroke-width="0.989513"/>
<rect x="138.606" y="187.462" width="6.92659" height="6.92659" fill="#D0D0D0" stroke="#D0D0D0" stroke-width="0.989513"/>
<rect x="249.47" y="332.149" width="6.92659" height="6.92659" fill="#D0D0D0" stroke="#D0D0D0" stroke-width="0.989513"/>
<rect x="178.536" y="332.149" width="6.92659" height="6.92659" fill="#D0D0D0" stroke="#D0D0D0" stroke-width="0.989513"/>
<rect x="89.2803" y="216.587" width="6.92659" height="6.92659" fill="#D0D0D0" stroke="#D0D0D0" stroke-width="0.989513"/>
<rect x="56.8665" y="226.922" width="6.92659" height="6.92659" fill="#D0D0D0" stroke="#D0D0D0" stroke-width="0.989513"/>
<rect x="56.8665" y="332.149" width="6.92659" height="6.92659" fill="#D0D0D0" stroke="#D0D0D0" stroke-width="0.989513"/>
<rect x="277.693" y="332.149" width="6.92659" height="6.92659" fill="#D0D0D0" stroke="#D0D0D0" stroke-width="0.989513"/>
<rect x="277.693" y="3.31312" width="6.92659" height="6.92659" fill="#D0D0D0" stroke="#D0D0D0" stroke-width="0.989513"/>
<rect x="334.064" y="3.31312" width="6.92659" height="6.92659" fill="#D0D0D0" stroke="#D0D0D0" stroke-width="0.989513"/>
<rect x="334.064" y="332.149" width="6.92659" height="6.92659" fill="#D0D0D0" stroke="#D0D0D0" stroke-width="0.989513"/>
<rect x="418.732" y="332.149" width="6.92659" height="6.92659" fill="#D0D0D0" stroke="#D0D0D0" stroke-width="0.989513"/>
<rect x="376.453" y="289.87" width="6.92659" height="6.92659" fill="#D0D0D0" stroke="#D0D0D0" stroke-width="0.989513"/>
<rect x="376.453" y="253.228" width="6.92659" height="6.92659" fill="#D0D0D0" stroke="#D0D0D0" stroke-width="0.989513"/>
<rect x="402.76" y="214.709" width="6.92659" height="6.92659" fill="#D0D0D0" stroke="#D0D0D0" stroke-width="0.989513"/>
<rect x="497.653" y="177.127" width="6.92659" height="6.92659" fill="#D0D0D0" stroke="#D0D0D0" stroke-width="0.989513"/>
<rect x="492.485" y="148.941" width="6.92659" height="6.92659" fill="#D0D0D0" stroke="#D0D0D0" stroke-width="0.989513"/>
<rect x="379.272" y="148.941" width="6.92659" height="6.92659" fill="#D0D0D0" stroke="#D0D0D0" stroke-width="0.989513"/>
<rect x="379.272" y="97.2662" width="6.92659" height="6.92659" fill="#D0D0D0" stroke="#D0D0D0" stroke-width="0.989513"/>
<rect x="526.778" y="97.2662" width="6.92659" height="6.92659" fill="#D0D0D0" stroke="#D0D0D0" stroke-width="0.989513"/>
<rect x="569.057" y="139.546" width="6.92659" height="6.92659" fill="#D0D0D0" stroke="#D0D0D0" stroke-width="0.989513"/>
<rect x="569.057" y="289.87" width="6.92659" height="6.92659" fill="#D0D0D0" stroke="#D0D0D0" stroke-width="0.989513"/>
<rect x="526.778" y="332.149" width="6.92659" height="6.92659" fill="#D0D0D0" stroke="#D0D0D0" stroke-width="0.989513"/>
<rect x="437.992" y="261.684" width="6.92659" height="6.92659" fill="#D0D0D0" stroke="#D0D0D0" stroke-width="0.989513"/>
<rect x="476.513" y="299.265" width="6.92659" height="6.92659" fill="#D0D0D0" stroke="#D0D0D0" stroke-width="0.989513"/>
<rect x="513.155" y="261.684" width="6.92659" height="6.92659" fill="#D0D0D0" stroke="#D0D0D0" stroke-width="0.989513"/>
<rect x="476.513" y="224.103" width="6.92659" height="6.92659" fill="#D0D0D0" stroke="#D0D0D0" stroke-width="0.989513"/>
<rect x="616.613" y="426.101" width="6.92659" height="6.92659" fill="#D0D0D0" stroke="#D0D0D0" stroke-width="0.989513"/>
<rect x="616.613" y="374.428" width="6.92659" height="6.92659" fill="#D0D0D0" stroke="#D0D0D0" stroke-width="0.989513"/>
<rect x="750.026" y="374.428" width="6.92659" height="6.92659" fill="#D0D0D0" stroke="#D0D0D0" stroke-width="0.989513"/>
<rect x="771.166" y="353.289" width="6.92659" height="6.92659" fill="#D0D0D0" stroke="#D0D0D0" stroke-width="0.989513"/>
<rect x="750.026" y="332.149" width="6.92659" height="6.92659" fill="#D0D0D0" stroke="#D0D0D0" stroke-width="0.989513"/>
<rect x="658.422" y="332.149" width="6.92659" height="6.92659" fill="#D0D0D0" stroke="#D0D0D0" stroke-width="0.989513"/>
<rect x="616.143" y="289.87" width="6.92659" height="6.92659" fill="#D0D0D0" stroke="#D0D0D0" stroke-width="0.989513"/>
<rect x="616.143" y="97.2662" width="6.92659" height="6.92659" fill="#D0D0D0" stroke="#D0D0D0" stroke-width="0.989513"/>
<rect x="672.515" y="97.2662" width="6.92659" height="6.92659" fill="#D0D0D0" stroke="#D0D0D0" stroke-width="0.989513"/>
<rect x="672.515" y="242.893" width="6.92659" height="6.92659" fill="#D0D0D0" stroke="#D0D0D0" stroke-width="0.989513"/>
<rect x="719.492" y="289.87" width="6.92659" height="6.92659" fill="#D0D0D0" stroke="#D0D0D0" stroke-width="0.989513"/>
<rect x="766.468" y="242.893" width="6.92659" height="6.92659" fill="#D0D0D0" stroke="#D0D0D0" stroke-width="0.989513"/>
<rect x="766.468" y="97.2662" width="6.92659" height="6.92659" fill="#D0D0D0" stroke="#D0D0D0" stroke-width="0.989513"/>
<rect x="822.84" y="97.2662" width="6.92659" height="6.92659" fill="#D0D0D0" stroke="#D0D0D0" stroke-width="0.989513"/>
<rect x="822.84" y="383.824" width="6.92659" height="6.92659" fill="#D0D0D0" stroke="#D0D0D0" stroke-width="0.989513"/>
<rect x="780.561" y="426.101" width="6.92659" height="6.92659" fill="#D0D0D0" stroke="#D0D0D0" stroke-width="0.989513"/>
<rect x="870.774" y="332.149" width="6.92659" height="6.92659" fill="#D0D0D0" stroke="#D0D0D0" stroke-width="0.989513"/>
<rect x="870.774" y="97.2662" width="6.92659" height="6.92659" fill="#D0D0D0" stroke="#D0D0D0" stroke-width="0.989513"/>
<rect x="927.146" y="97.2662" width="6.92659" height="6.92659" fill="#D0D0D0" stroke="#D0D0D0" stroke-width="0.989513"/>
<rect x="927.146" y="332.149" width="6.92659" height="6.92659" fill="#D0D0D0" stroke="#D0D0D0" stroke-width="0.989513"/>
<rect x="860.439" y="39.0162" width="6.92659" height="6.92659" fill="#D0D0D0" stroke="#D0D0D0" stroke-width="0.989513"/>
<rect x="898.96" y="0.494757" width="6.92659" height="6.92659" fill="#D0D0D0" stroke="#D0D0D0" stroke-width="0.989513"/>
<rect x="937.95" y="39.0162" width="6.92659" height="6.92659" fill="#D0D0D0" stroke="#D0D0D0" stroke-width="0.989513"/>
<rect x="898.96" y="78.0065" width="6.92659" height="6.92659" fill="#D0D0D0" stroke="#D0D0D0" stroke-width="0.989513"/>
<rect x="975.348" y="139.546" width="6.92659" height="6.92659" fill="#D0D0D0" stroke="#D0D0D0" stroke-width="0.989513"/>
<rect x="1017.63" y="97.2662" width="6.92659" height="6.92659" fill="#D0D0D0" stroke="#D0D0D0" stroke-width="0.989513"/>
<rect x="1271.3" y="97.2662" width="6.92659" height="6.92659" fill="#D0D0D0" stroke="#D0D0D0" stroke-width="0.989513"/>
<rect x="1313.58" y="139.546" width="6.92659" height="6.92659" fill="#D0D0D0" stroke="#D0D0D0" stroke-width="0.989513"/>
<rect x="1313.58" y="332.149" width="6.92659" height="6.92659" fill="#D0D0D0" stroke="#D0D0D0" stroke-width="0.989513"/>
<rect x="1257.21" y="332.149" width="6.92659" height="6.92659" fill="#D0D0D0" stroke="#D0D0D0" stroke-width="0.989513"/>
<rect x="1257.21" y="181.825" width="6.92659" height="6.92659" fill="#D0D0D0" stroke="#D0D0D0" stroke-width="0.989513"/>
<rect x="1214.93" y="139.546" width="6.92659" height="6.92659" fill="#D0D0D0" stroke="#D0D0D0" stroke-width="0.989513"/>
<rect x="1172.65" y="181.825" width="6.92659" height="6.92659" fill="#D0D0D0" stroke="#D0D0D0" stroke-width="0.989513"/>
<rect x="1172.65" y="332.149" width="6.92659" height="6.92659" fill="#D0D0D0" stroke="#D0D0D0" stroke-width="0.989513"/>
<rect x="1116.28" y="332.149" width="6.92659" height="6.92659" fill="#D0D0D0" stroke="#D0D0D0" stroke-width="0.989513"/>
<rect x="1116.28" y="181.825" width="6.92659" height="6.92659" fill="#D0D0D0" stroke="#D0D0D0" stroke-width="0.989513"/>
<rect x="1074" y="139.546" width="6.92659" height="6.92659" fill="#D0D0D0" stroke="#D0D0D0" stroke-width="0.989513"/>
<rect x="1031.72" y="181.825" width="6.92659" height="6.92659" fill="#D0D0D0" stroke="#D0D0D0" stroke-width="0.989513"/>
<rect x="1031.72" y="332.149" width="6.92659" height="6.92659" fill="#D0D0D0" stroke="#D0D0D0" stroke-width="0.989513"/>
<rect x="975.348" y="332.149" width="6.92659" height="6.92659" fill="#D0D0D0" stroke="#D0D0D0" stroke-width="0.989513"/>
<g opacity="0.9">
<path d="M3.95805 335.613V6.77756H60.3298V112.475C60.3298 131.735 80.9995 137.842 92.7436 122.809L181.999 6.77756H252.933L142.069 151.465C132.204 164.149 132.674 178.242 142.069 190.925L252.933 335.613H181.999L92.7436 220.051C81.4692 205.488 60.3298 211.125 60.3298 230.386V335.613H3.95805Z" stroke="#D0D0D0" stroke-width="0.989513"/>
<path d="M281.156 335.613V6.77756H337.528V335.613H281.156Z" stroke="#D0D0D0" stroke-width="0.989513"/>
<path d="M422.195 335.613C399.647 335.613 379.917 315.883 379.917 293.334V256.692C379.917 241.19 391.661 223.809 406.223 218.172L501.116 180.59C518.027 174.014 513.799 152.405 495.948 152.405H382.735V100.731H530.241C552.79 100.731 572.52 120.461 572.52 143.009V293.334C572.52 315.883 552.79 335.613 530.241 335.613H422.195ZM441.456 265.148C441.456 285.818 459.307 302.729 479.976 302.729C499.707 302.729 516.618 285.818 516.618 265.148C516.618 245.418 499.707 227.567 479.976 227.567C459.307 227.567 441.456 245.418 441.456 265.148Z" stroke="#D0D0D0" stroke-width="0.989513"/>
<path d="M620.076 429.566V377.892H753.49C765.234 377.892 774.629 368.496 774.629 356.752C774.629 345.008 765.234 335.613 753.49 335.613H661.885C639.337 335.613 619.607 315.883 619.607 293.334V100.731H675.978V246.358C675.978 271.725 697.588 293.334 722.955 293.334C748.322 293.334 769.931 271.725 769.931 246.358V100.731H826.303V387.287C826.303 409.836 806.573 429.566 784.024 429.566H620.076Z" stroke="#D0D0D0" stroke-width="0.989513"/>
<path d="M874.237 335.613V100.731H930.609V335.613H874.237ZM863.903 42.4797C863.903 20.8705 881.284 3.95898 902.423 3.95898C923.563 3.95898 941.414 20.8705 941.414 42.4797C941.414 63.1493 923.563 81.4702 902.423 81.4702C881.284 81.4702 863.903 63.1493 863.903 42.4797Z" stroke="#D0D0D0" stroke-width="0.989513"/>
<path d="M978.811 143.009C978.811 120.461 998.542 100.731 1021.09 100.731H1274.76C1297.31 100.731 1317.04 120.461 1317.04 143.009V335.613H1260.67V185.288C1260.67 162.739 1240.94 143.009 1218.39 143.009C1195.84 143.009 1176.11 162.739 1176.11 185.288V335.613H1119.74V185.288C1119.74 162.739 1100.01 143.009 1077.46 143.009C1054.91 143.009 1035.18 162.739 1035.18 185.288V335.613H978.811V143.009Z" stroke="#D0D0D0" stroke-width="0.989513"/>
</g>
</svg>
