<svg width="128" height="31" viewBox="0 0 128 31" fill="none" xmlns="http://www.w3.org/2000/svg">
<path d="M13.6973 2.77051C13.6973 5.09273 15.5801 6.97559 17.9023 6.97559C20.2244 6.9754 22.1074 5.09262 22.1074 2.77051V0.0078125H27.79C28.2341 0.00796932 28.5947 0.3684 28.5947 0.8125V9.62012H25.8311C23.509 9.6203 21.627 11.5031 21.627 13.8252C21.6272 16.1471 23.5091 18.0291 25.8311 18.0293H28.5947V27.0752C28.5947 27.5192 28.2341 27.8787 27.79 27.8789H22.1064V25.1162C22.1064 22.7941 20.2244 20.9114 17.9023 20.9111C15.5801 20.9111 13.6973 22.794 13.6973 25.1162V27.8789H7.77441C7.33026 27.8789 6.96979 27.5193 6.96973 27.0752V0.8125C6.96973 0.368303 7.33022 0.0078125 7.77441 0.0078125H13.6973V2.77051ZM6.96777 9.62012V18.0293H4.20508C1.88301 18.0293 0.000256827 16.1472 0 13.8252C-1.01508e-07 11.503 1.88285 9.62012 4.20508 9.62012H6.96777Z" fill="#303030"/>
<path d="M46.3467 24.3945V4.41572H49.7716V10.8375C49.7716 12.0077 51.0274 12.3787 51.741 11.4654L57.1638 4.41572H61.4735L54.7378 13.2064C54.1384 13.977 54.167 14.8332 54.7378 15.6039L61.4735 24.3945H57.1638L51.741 17.3734C51.056 16.4886 49.7716 16.8311 49.7716 18.0013V24.3945H46.3467ZM63.1882 24.3945V4.41572H66.6131V24.3945H63.1882ZM71.7572 24.3945C70.3873 24.3945 69.1885 23.1958 69.1885 21.8258V19.5996C69.1885 18.6578 69.9021 17.6017 70.7868 17.2592L76.5521 14.976C77.5796 14.5764 77.3228 13.2635 76.2382 13.2635H69.3598V10.124H78.3217C79.6917 10.124 80.8904 11.3227 80.8904 12.6927V21.8258C80.8904 23.1958 79.6917 24.3945 78.3217 24.3945H71.7572ZM72.9274 20.1134C72.9274 21.3692 74.012 22.3967 75.2678 22.3967C76.4665 22.3967 77.494 21.3692 77.494 20.1134C77.494 18.9146 76.4665 17.8301 75.2678 17.8301C74.012 17.8301 72.9274 18.9146 72.9274 20.1134ZM83.7797 30.1028V26.9632H91.8854C92.599 26.9632 93.1698 26.3924 93.1698 25.6789C93.1698 24.9654 92.599 24.3945 91.8854 24.3945H86.3199C84.9499 24.3945 83.7512 23.1958 83.7512 21.8258V10.124H87.1761V18.9717C87.1761 20.5129 88.489 21.8258 90.0303 21.8258C91.5715 21.8258 92.8844 20.5129 92.8844 18.9717V10.124H96.3093V27.5341C96.3093 28.904 95.1106 30.1028 93.7406 30.1028H83.7797ZM99.2216 24.3945V10.124H102.647V24.3945H99.2216ZM98.5937 6.58485C98.5937 5.27196 99.6497 4.24448 100.934 4.24448C102.218 4.24448 103.303 5.27196 103.303 6.58485C103.303 7.84066 102.218 8.95377 100.934 8.95377C99.6497 8.95377 98.5937 7.84066 98.5937 6.58485ZM105.575 12.6927C105.575 11.3227 106.774 10.124 108.144 10.124H123.556C124.926 10.124 126.125 11.3227 126.125 12.6927V24.3945H122.7V15.2614C122.7 13.8914 121.501 12.6927 120.131 12.6927C118.761 12.6927 117.562 13.8914 117.562 15.2614V24.3945H114.137V15.2614C114.137 13.8914 112.939 12.6927 111.569 12.6927C110.199 12.6927 109 13.8914 109 15.2614V24.3945H105.575V12.6927Z" fill="#303030"/>
</svg>
