<svg width="29" height="28" viewBox="0 0 29 28" fill="none" xmlns="http://www.w3.org/2000/svg">
<path d="M13.6973 2.7627C13.6973 5.08492 15.5801 6.96777 17.9023 6.96777C20.2244 6.96759 22.1074 5.0848 22.1074 2.7627V0H27.79C28.2341 0.000156815 28.5947 0.360587 28.5947 0.804688V9.6123H25.8311C23.509 9.61249 21.627 11.4953 21.627 13.8174C21.6272 16.1393 23.5091 18.0213 25.8311 18.0215H28.5947V27.0674C28.5947 27.5114 28.2341 27.8709 27.79 27.8711H22.1064V25.1084C22.1064 22.7863 20.2244 20.9036 17.9023 20.9033C15.5801 20.9033 13.6973 22.7862 13.6973 25.1084V27.8711H7.77441C7.33026 27.8711 6.96979 27.5115 6.96973 27.0674V0.804688C6.96973 0.360491 7.33022 0 7.77441 0H13.6973V2.7627ZM6.96777 9.6123V18.0215H4.20508C1.88301 18.0215 0.000256827 16.1394 0 13.8174C-1.01508e-07 11.4952 1.88285 9.6123 4.20508 9.6123H6.96777Z" fill="#303030"/>
</svg>
