<svg width="80" height="26" viewBox="0 0 80 26" fill="none" xmlns="http://www.w3.org/2000/svg">
<path d="M2.21472e-06 20.1504V0.171584H3.42494V6.59334C3.42494 7.76353 4.68075 8.13457 5.39428 7.22125L10.8171 0.171584H15.1268L8.3911 8.96226C7.79174 9.73287 7.82028 10.5891 8.3911 11.3597L15.1268 20.1504H10.8171L5.39428 13.1293C4.70929 12.2445 3.42494 12.587 3.42494 13.7572V20.1504H2.21472e-06ZM16.8415 20.1504V0.171584H20.2664V20.1504H16.8415ZM25.4105 20.1504C24.0406 20.1504 22.8418 18.9517 22.8418 17.5817V15.3555C22.8418 14.4136 23.5554 13.3576 24.4401 13.0151L30.2055 10.7318C31.2329 10.3322 30.9761 9.01934 29.8915 9.01934H23.0131V5.87982H31.975C33.345 5.87982 34.5437 7.07854 34.5437 8.44852V17.5817C34.5437 18.9517 33.345 20.1504 31.975 20.1504H25.4105ZM26.5807 15.8692C26.5807 17.125 27.6653 18.1525 28.9211 18.1525C30.1198 18.1525 31.1473 17.125 31.1473 15.8692C31.1473 14.6705 30.1198 13.5859 28.9211 13.5859C27.6653 13.5859 26.5807 14.6705 26.5807 15.8692ZM37.4331 25.8586V22.7191H45.5387C46.2523 22.7191 46.8231 22.1483 46.8231 21.4347C46.8231 20.7212 46.2523 20.1504 45.5387 20.1504H39.9732C38.6032 20.1504 37.4045 18.9517 37.4045 17.5817V5.87982H40.8295V14.7276C40.8295 16.2688 42.1424 17.5817 43.6836 17.5817C45.2248 17.5817 46.5377 16.2688 46.5377 14.7276V5.87982H49.9626V23.2899C49.9626 24.6599 48.7639 25.8586 47.3939 25.8586H37.4331ZM52.8749 20.1504V5.87982H56.2999V20.1504H52.8749ZM52.247 2.34071C52.247 1.02782 53.3031 0.000337129 54.5874 0.000337129C55.8718 0.000337129 56.9563 1.02782 56.9563 2.34071C56.9563 3.59652 55.8718 4.70963 54.5874 4.70963C53.3031 4.70963 52.247 3.59652 52.247 2.34071ZM59.2285 8.44852C59.2285 7.07854 60.4272 5.87982 61.7972 5.87982H77.2094C78.5794 5.87982 79.7781 7.07854 79.7781 8.44852V20.1504H76.3532V11.0172C76.3532 9.64725 75.1544 8.44852 73.7845 8.44852C72.4145 8.44852 71.2157 9.64725 71.2157 11.0172V20.1504H67.7908V11.0172C67.7908 9.64725 66.5921 8.44852 65.2221 8.44852C63.8521 8.44852 62.6534 9.64725 62.6534 11.0172V20.1504H59.2285V8.44852Z" fill="#303030"/>
</svg>
